<svg width="48" height="48" viewBox="0 0 32 33" fill="none" xmlns="http://www.w3.org/2000/svg">
  <path d="M9.49442 6.97266C13.743 9.96105 20.0255 12.3608 25.7204 14.3531C22.6469 13.4022 19.3927 12.9042 16.0481 12.9042C13.4718 12.9042 10.9407 13.2211 8.54527 13.7645C5.60742 12.1344 3.30234 10.595 1.76562 9.14603C4.2063 8.1499 6.78256 7.42544 9.49442 6.97266Z" fill="#AA0A00" />
  <path d="M1.62711 8.82935C0.994339 6.88237 0.451977 4.8901 0 2.80728C1.9887 2.08282 4.0226 1.4942 6.1017 1.04141C9.26554 0.36223 12.6102 0 16 0C19.435 0 22.7345 0.36223 25.8983 1.04141C27.9774 1.4942 30.0565 2.08282 32 2.80728C31.548 4.8901 31.0056 6.88237 30.3729 8.82935L30.2825 9.10102C25.8531 7.38043 21.017 6.3843 16 6.3843C10.9379 6.3843 6.14689 7.33515 1.71751 9.10102L1.62711 8.82935Z" fill="#E60014" />
  <path d="M27.9782 15.1682C27.2098 16.9341 26.3511 18.6094 25.4019 20.2395L24.9951 20.9639C22.1929 19.9225 19.1646 19.3792 16.0008 19.3792C12.837 19.3792 9.80873 19.9225 7.00648 20.9639L6.59969 20.2395C5.69574 18.6094 4.83699 16.9341 4.02344 15.1682C7.72964 13.7193 11.7522 12.9043 16.0008 12.9043C20.2494 12.9043 24.272 13.7193 27.9782 15.1682Z" fill="#E60014" />
  <path d="M13.5598 19.4688C15.6841 22.7288 18.0344 25.4455 20.2943 27.6642C18.9383 29.2942 17.492 30.7884 16.0005 32.1468C14.4638 30.7431 13.0174 29.2037 11.6163 27.5736C11.0739 26.9397 10.5768 26.2606 10.0344 25.5814C9.40161 24.7211 8.76884 23.8608 8.18127 22.9099C7.77449 22.276 7.36772 21.5968 6.96094 20.9177C9.08523 20.1932 11.2999 19.6951 13.5598 19.4688Z" fill="#AA0A00" />
</svg>
